REM DIRINDEX 1\2,1\3,1\4,1\5
REM DIRNAME "folder01","folder02","folder03","folder04","folder05"
TITLE ""
FILE "P1Q_t_0529-0538.mp3" MP3
  TRACK 01 AUDIO
    TITLE "3:cjc173_2520"
    INDEX 01 00:00:00
  TRACK 02 AUDIO
    TITLE "0:"
    INDEX 01 00:01:14
  TRACK 03 AUDIO
    TITLE "4:cjc173_2521"
    INDEX 01 00:01:35
  TRACK 04 AUDIO
    TITLE "0:"
    INDEX 01 00:03:54
  TRACK 05 AUDIO
    TITLE "5:cjc173_2522"
    INDEX 01 00:03:75
  TRACK 06 AUDIO
    TITLE "0:"
    INDEX 01 00:09:66
  TRACK 07 AUDIO
    TITLE "3:cjc173_2523"
    INDEX 01 00:10:40
  TRACK 08 AUDIO
    TITLE "0:"
    INDEX 01 00:11:39
  TRACK 09 AUDIO
    TITLE "4:cjc173_2524"
    INDEX 01 00:11:65
  TRACK 10 AUDIO
    TITLE "0:"
    INDEX 01 00:14:16
  TRACK 11 AUDIO
    TITLE "5:cjc173_2525"
    INDEX 01 00:14:36
  TRACK 12 AUDIO
    TITLE "0:"
    INDEX 01 00:19:25
  TRACK 13 AUDIO
    TITLE "3:cjc173_2526"
    INDEX 01 00:19:70
  TRACK 14 AUDIO
    TITLE "0:"
    INDEX 01 00:21:34
  TRACK 15 AUDIO
    TITLE "4:cjc173_2527"
    INDEX 01 00:21:58
  TRACK 16 AUDIO
    TITLE "0:"
    INDEX 01 00:24:73
  TRACK 17 AUDIO
    TITLE "5:cjc173_2528"
    INDEX 01 00:25:18
  TRACK 18 AUDIO
    TITLE "0:"
    INDEX 01 00:31:11
  TRACK 19 AUDIO
    TITLE "3:cjc173_2529"
    INDEX 01 00:31:56
  TRACK 20 AUDIO
    TITLE "0:"
    INDEX 01 00:33:02
  TRACK 21 AUDIO
    TITLE "4:cjc173_2530"
    INDEX 01 00:33:23
  TRACK 22 AUDIO
    TITLE "0:"
    INDEX 01 00:37:62
  TRACK 23 AUDIO
    TITLE "5:cjc173_2531"
    INDEX 01 00:38:07
  TRACK 24 AUDIO
    TITLE "0:"
    INDEX 01 00:43:41
  TRACK 25 AUDIO
    TITLE "3:cjc173_2532"
    INDEX 01 00:44:12
  TRACK 26 AUDIO
    TITLE "0:"
    INDEX 01 00:45:15
  TRACK 27 AUDIO
    TITLE "4:cjc173_2533"
    INDEX 01 00:45:36
  TRACK 28 AUDIO
    TITLE "0:"
    INDEX 01 00:46:55
  TRACK 29 AUDIO
    TITLE "5:cjc173_2534"
    INDEX 01 00:46:75
  TRACK 30 AUDIO
    TITLE "0:"
    INDEX 01 00:52:11
  TRACK 31 AUDIO
    TITLE "3:cjc173_2535"
    INDEX 01 00:52:60
  TRACK 32 AUDIO
    TITLE "0:"
    INDEX 01 00:53:52
  TRACK 33 AUDIO
    TITLE "4:cjc173_2536"
    INDEX 01 00:54:02
  TRACK 34 AUDIO
    TITLE "0:"
    INDEX 01 00:56:21
  TRACK 35 AUDIO
    TITLE "5:cjc173_2537"
    INDEX 01 00:56:38
  TRACK 36 AUDIO
    TITLE "0:"
    INDEX 01 01:02:21
  TRACK 37 AUDIO
    TITLE "3:cjc173_2538"
    INDEX 01 01:02:70
  TRACK 38 AUDIO
    TITLE "0:"
    INDEX 01 01:04:06
  TRACK 39 AUDIO
    TITLE "4:cjc173_2539"
    INDEX 01 01:04:28
  TRACK 40 AUDIO
    TITLE "0:"
    INDEX 01 01:07:09
  TRACK 41 AUDIO
    TITLE "5:cjc173_2540"
    INDEX 01 01:07:30
  TRACK 42 AUDIO
    TITLE "0:"
    INDEX 01 01:12:14
  TRACK 43 AUDIO
    TITLE "3:cjc173_2541"
    INDEX 01 01:12:65
  TRACK 44 AUDIO
    TITLE "0:"
    INDEX 01 01:13:66
  TRACK 45 AUDIO
    TITLE "4:cjc173_2542"
    INDEX 01 01:14:15
  TRACK 46 AUDIO
    TITLE "0:"
    INDEX 01 01:15:55
  TRACK 47 AUDIO
    TITLE "5:cjc173_2543"
    INDEX 01 01:15:75
  TRACK 48 AUDIO
    TITLE "0:"
    INDEX 01 01:20:25
  TRACK 49 AUDIO
    TITLE "3:cjc173_2544"
    INDEX 01 01:20:72
  TRACK 50 AUDIO
    TITLE "0:"
    INDEX 01 01:22:04
  TRACK 51 AUDIO
    TITLE "4:cjc173_2545"
    INDEX 01 01:22:30
  TRACK 52 AUDIO
    TITLE "0:"
    INDEX 01 01:24:68
  TRACK 53 AUDIO
    TITLE "5:cjc173_2546"
    INDEX 01 01:25:38
  TRACK 54 AUDIO
    TITLE "0:"
    INDEX 01 01:29:38
  TRACK 55 AUDIO
    TITLE "3:cjc173_2547"
    INDEX 01 01:30:10
  TRACK 56 AUDIO
    TITLE "0:"
    INDEX 01 01:31:23
  TRACK 57 AUDIO
    TITLE "4:cjc173_2548"
    INDEX 01 01:31:44
  TRACK 58 AUDIO
    TITLE "0:"
    INDEX 01 01:35:62
  TRACK 59 AUDIO
    TITLE "5:cjc173_2549"
    INDEX 01 01:36:08
  TRACK 60 AUDIO
    TITLE "0:"
    INDEX 01 01:41:06
